<?xml version="1.0" encoding="UTF-8"?>
<svg width="500px" height="500px" viewBox="0 0 500 500" version="1.1" xmlns="http://www.w3.org/2000/svg" xmlns:xlink="http://www.w3.org/1999/xlink">
    <title>logo</title>
    <defs>
        <polygon id="path-1" points="0 -1.48403821e-13 212 -1.48403821e-13 212 321.704141 0 321.704141"></polygon>
    </defs>
    <g id="logo" stroke="none" stroke-width="1" fill="none" fill-rule="evenodd">
        <g id="Group" transform="translate(-103.5534, -103.5534)">
            <circle id="Oval" stroke="#979797" fill="#2C70FF" cx="353.553391" cy="353.553391" r="249.5"></circle>
            <g id="outer-ring" transform="translate(353.5534, 353.5534) rotate(-315) translate(-353.5534, -353.5534)translate(103.5534, 103.5534)">
                <path d="M250,0 C388.071187,0 500,111.928813 500,250 L464,250 C464,131.811064 368.188936,36 250,36 L250,0 Z" id="Combined-Shape" fill="#EE9EFF"></path>
                <path d="M250,250 C388.071187,250 500,361.928813 500,500 L464,500 C464,381.811064 368.188936,286 250,286 L250,250 Z" id="Combined-Shape-Copy" fill="#C9FF27" transform="translate(375, 375) rotate(90) translate(-375, -375)"></path>
                <path d="M0,250 C138.071187,250 250,361.928813 250,500 L214,500 C214,381.811064 118.188936,286 0,286 L0,250 Z" id="Combined-Shape-Copy-2" fill="#28FFBB" transform="translate(125, 375) rotate(-180) translate(-125, -375)"></path>
                <path d="M0,0 C138.071187,0 250,111.928813 250,250 L214,250 C214,131.811064 118.188936,36 0,36 L0,0 Z" id="Combined-Shape-Copy-3" fill="#FFFA06" transform="translate(125, 125) rotate(-90) translate(-125, -125)"></path>
            </g>
        </g>
        <g id="Group-6" transform="translate(254.3653, 243.8728) rotate(-270) translate(-254.3653, -243.8728)translate(148.3653, 83.0207)">
            <g id="Group-3" transform="translate(0, 0)">
                <mask id="mask-2" fill="white">
                    <use xlink:href="#path-1"></use>
                </mask>
                <g id="Clip-2"></g>
                <path d="M100.937215,79.1537624 C108.02137,80.1039266 115.115905,80.9914386 122.216001,81.8025816 C122.421012,81.8259372 122.62528,81.8485513 122.83029,81.8707947 C93.777433,65.1241032 60.1802473,52.5558359 26.204553,55.3718514 C48.8557573,69.0370894 74.9591386,75.475444 100.937215,79.1537624 M174.598116,299.757215 C197.119938,295.310758 162.969262,270.778502 155.859157,265.292166 C156.045631,265.418212 156.232475,265.544258 156.41932,265.669933 L156.947972,266.02694 C151.852378,262.535466 146.553998,259.476627 141.228555,256.37812 C133.412963,257.697895 118.53101,260.732267 124.012527,271.690482 C128.137197,279.458622 134.341625,285.957034 141.60521,290.870232 C151.324838,297.185506 163.077143,299.972976 174.598116,299.757215 M163.618399,320.795772 C146.841679,318.879873 130.575074,311.33009 118.919899,299.009095 C111.931391,291.259862 104.810534,282.247204 103.308363,271.631908 C101.810269,260.527257 107.420428,248.969211 117.816997,244.323675 C93.8853135,233.94972 68.5582271,227.329711 44.0930728,218.383412 C36.1836875,215.647102 28.1897772,213.120251 20.455744,209.904225 C14.7740361,207.811491 7.82260017,205.34618 7.18161928,198.334316 C6.63035347,185.112092 18.3819169,183.759322 28.5464132,187.079151 C79.7525932,201.996322 128.521637,229.95777 182.908995,231.184494 C173.829607,218.113896 160.735653,208.218545 147.694714,199.328596 C135.629148,191.401416 123.622526,183.312601 110.796606,176.649588 C98.8281696,170.8448 86.5813196,165.626867 74.343367,160.413382 C70.3947912,158.475981 65.8263658,157.424239 62.5258147,154.407662 C56.8567114,149.038103 58.7236748,138.705299 66.0573266,135.85184 C74.1980434,132.910891 85.9173539,138.755717 94.46253,140.039162 C110.909306,143.918783 127.545522,146.962052 143.948553,151.026293 C154.702129,153.664732 165.644774,156.402896 176.79836,155.963588 C210.367742,150.585503 165.003422,114.918197 154.822614,105.700529 C130.606586,106.273297 106.42763,103.271178 82.6227343,99.0419646 C61.3357924,95.1545583 40.4699923,88.8314987 21.3228662,78.6295594 C13.1191265,74.0870846 3.60413774,69.1197608 0.632047642,59.5480514 C-3.96714779,40.4728457 17.5118289,31.2974397 33.3598868,32.2075658 C80.4895915,32.6906185 126.499711,52.5280316 162.405021,82.5028782 C200.672211,80.5120932 201.183438,53.4870933 188.980704,24.1369157 C184.596529,15.7300195 178.993785,8.05307776 174.014598,-0.000148289392 C181.32786,6.28435606 189.07561,12.2796961 195.529164,19.5121404 C217.712886,46.017386 220.994159,87.1732526 183.348673,100.817359 C193.314832,110.120665 203.555698,120.046045 208.753982,132.908666 C213.256048,143.787917 211.936273,156.999761 204.628201,166.353114 C192.231208,180.6167 171.190797,180.003523 154.170511,176.485728 C171.874782,188.272139 194.257212,203.814721 204.050243,223.1068 C211.307896,241.722679 196.150496,255.928803 177.653249,253.804187 C187.634607,262.644459 198.753346,271.849152 203.277284,284.809274 C209.880611,309.74673 186.682219,325.782003 163.618399,320.795772" id="Fill-1" fill="#FFFFFF" mask="url(#mask-2)"></path>
            </g>
            <path d="M113.151368,202.321558 C100.00403,200.256258 98.3758128,188.740845 96.5381366,177.778552 C93.6138698,164.470691 92.6655591,150.871442 91.1003646,137.365986 C86.9056285,117.555265 109.976121,104.575865 121.630926,123.237343 C126.571187,133.299891 125.105717,145.340248 127.116521,156.201333 C127.465001,167.352696 134.610325,182.285437 130.606882,192.207851 C127.755278,199.018041 120.433118,203.359584 113.151368,202.321558" id="Fill-4" fill="#FFFFFF"></path>
        </g>
    </g>
</svg>